<?xml version="1.0" encoding="UTF-8"?><svg xmlns="http://www.w3.org/2000/svg" xmlns:xlink="http://www.w3.org/1999/xlink" viewBox="0 0 1920 1080"><defs><style>.cls-1{fill:url(#linear-gradient);}.cls-1,.cls-2,.cls-3{stroke-width:0px;}.cls-2{fill:#f2eb00;}.cls-3{fill:#fff;}</style><linearGradient id="linear-gradient" x1="960" y1="1328.7" x2="960" y2="15.9" gradientUnits="userSpaceOnUse"><stop offset=".2" stop-color="#245e79"/><stop offset=".2" stop-color="#245d78"/><stop offset=".5" stop-color="#242b38"/><stop offset="1" stop-color="#252932"/></linearGradient></defs><g id="Layer_1"><rect class="cls-1" y="0" width="1920" height="1080"/></g><g id="Layer_3"><path class="cls-3" d="m1880.8,236.3c-.6,0-.6,1,0,1s.6-1,0-1Z"/><path class="cls-3" d="m1825.7,246.5c-.6,0-.6,1,0,1s.6-1,0-1Z"/><path class="cls-3" d="m1588.6,238c-.6,0-.6,1,0,1s.6-1,0-1Z"/><path class="cls-3" d="m1299.4,271.3c-.6,0-.6,1,0,1s.6-1,0-1Z"/><path class="cls-3" d="m206.2,473.5c-.6,0-.6,1,0,1s.6-1,0-1Z"/><path class="cls-3" d="m209.5,300.7c-.6,0-.6,1,0,1s.6-1,0-1Z"/><path class="cls-3" d="m129.9,234.6c-.6,0-.6,1,0,1s.6-1,0-1Z"/><path class="cls-3" d="m231.6,138c-.6,0-.6,1,0,1s.6-1,0-1Z"/><path class="cls-3" d="m553.5,249.8c-.6,0-.6,1,0,1s.6-1,0-1Z"/><path class="cls-3" d="m423,405.7c-.6,0-.6,1,0,1s.6-1,0-1Z"/><path class="cls-3" d="m680.5,148.2c-.6,0-.6,1,0,1s.6-1,0-1Z"/><path class="cls-3" d="m506,127.9c-.6,0-.6,1,0,1s.6-1,0-1Z"/><path class="cls-3" d="m470.4,36.4c-.6,0-.6,1,0,1s.6-1,0-1Z"/><path class="cls-3" d="m367.1,212.6c-.6,0-.6,1,0,1s.6-1,0-1Z"/><path class="cls-3" d="m382.3,122.8c-.6,0-.6,1,0,1s.6-1,0-1Z"/><path class="cls-3" d="m1209.1,468.4c-.6,0-.6,1,0,1s.6-1,0-1Z"/><path class="cls-3" d="m1229.4,177c-.6,0-.6,1,0,1s.6-1,0-1Z"/><path class="cls-3" d="m1558.1,158.4c-.6,0-.6,1,0,1s.6-1,0-1Z"/><path class="cls-3" d="m1780,43.2c-.6,0-.6,1,0,1s.6-1,0-1Z"/><path class="cls-3" d="m1879.9,95.7c-.6,0-.6,1,0,1s.6-1,0-1Z"/><path class="cls-3" d="m1127.8,60.1c-.6,0-.6,1,0,1s.6-1,0-1Z"/><path class="cls-3" d="m866.9,227.8c-.6,0-.6,1,0,1s.6-1,0-1Z"/><path class="cls-3" d="m121.5,65.2c-.6,0-.6,1,0,1s.6-1,0-1Z"/><path class="cls-3" d="m52,441.3c-.6,0-.6,1,0,1s.6-1,0-1Z"/><path class="cls-3" d="m126.5,375.2c-.6,0-.6,1,0,1s.6-1,0-1Z"/><path class="cls-3" d="m1693.6,556.5c-.6,0-.6,1,0,1s.6-1,0-1Z"/><path class="cls-3" d="m1778.3,409.1c-.6,0-.6,1,0,1s.6-1,0-1Z"/><path class="cls-3" d="m1854.5,537.8c-.6,0-.6,1,0,1s.6-1,0-1Z"/><path class="cls-3" d="m1603.8,512.4c-.6,0-.6,1,0,1s.6-1,0-1Z"/><path class="cls-3" d="m1510.6,470.1c-.6,0-.6,1,0,1s.6-1,0-1Z"/><path class="cls-3" d="m1525.9,451.4c-.6,0-.6,1,0,1s.6-1,0-1Z"/><path class="cls-3" d="m1429.3,204.1c-.6,0-.6,1,0,1s.6-1,0-1Z"/><path class="cls-3" d="m978.7,348.1c-.6,0-.6,1,0,1s.6-1,0-1Z"/><path class="cls-3" d="m711,510.7c-.6,0-.6,1,0,1s.6-1,0-1Z"/><path class="cls-3" d="m894,134.6c-.6,0-.6,1,0,1s.6-1,0-1Z"/><path class="cls-3" d="m1580.1,66.9c-.6,0-.6,1,0,1s.6-1,0-1Z"/><path class="cls-3" d="m924.5,49.9c-.6,0-.6,1,0,1s.6-1,0-1Z"/><path class="cls-3" d="m1097.3,209.2c-.6,0-.6,1,0,1s.6-1,0-1Z"/><path class="cls-3" d="m267.1,817.4c-.6,0-.6,1,0,1s.6-1,0-1Z"/><path class="cls-3" d="m304.4,683.5c-.6,0-.6,1,0,1s.6-1,0-1Z"/><path class="cls-3" d="m167.2,615.8c-.6,0-.6,1,0,1s.6-1,0-1Z"/><path class="cls-3" d="m487.4,890.2c-.6,0-.6,1,0,1s.6-1,0-1Z"/><path class="cls-3" d="m651.7,776.7c-.6,0-.6,1,0,1s.6-1,0-1Z"/><path class="cls-3" d="m604.3,654.7c-.6,0-.6,1,0,1s.6-1,0-1Z"/><path class="cls-3" d="m897.4,798.7c-.6,0-.6,1,0,1s.6-1,0-1Z"/><path class="cls-3" d="m873.6,937.7c-.6,0-.6,1,0,1s.6-1,0-1Z"/><path class="cls-3" d="m1156.6,919c-.6,0-.6,1,0,1s.6-1,0-1Z"/><path class="cls-3" d="m1099,715.7c-.6,0-.6,1,0,1s.6-1,0-1Z"/><path class="cls-3" d="m1344.6,656.4c-.6,0-.6,1,0,1s.6-1,0-1Z"/><path class="cls-3" d="m1427.6,585.3c-.6,0-.6,1,0,1s.6-1,0-1Z"/><path class="cls-3" d="m1547.9,712.3c-.6,0-.6,1,0,1s.6-1,0-1Z"/><path class="cls-3" d="m1659.7,827.5c-.6,0-.6,1,0,1s.6-1,0-1Z"/><path class="cls-3" d="m1690.2,958c-.6,0-.6,1,0,1s.6-1,0-1Z"/><path class="cls-3" d="m1478.4,959.7c-.6,0-.6,1,0,1s.6-1,0-1Z"/><path class="cls-3" d="m1851.1,676.8c-.6,0-.6,1,0,1s.6-1,0-1Z"/><path class="cls-3" d="m1812.2,814c-.6,0-.6,1,0,1s.6-1,0-1Z"/><path class="cls-3" d="m853.3,590.4c-.6,0-.6,1,0,1s.6-1,0-1Z"/><path class="cls-3" d="m912.6,498.9c-.6,0-.6,1,0,1s.6-1,0-1Z"/><path class="cls-3" d="m616.1,410.8c-.6,0-.6,1,0,1s.6-1,0-1Z"/><path class="cls-2" d="m1623.6,295c-.6,0-.6,1,0,1s.6-1,0-1Z"/><path class="cls-2" d="m1322.6,444.7c-.6,0-.6,1,0,1s.6-1,0-1Z"/><path class="cls-2" d="m1136.2,402.3c-.6,0-.6,1,0,1s.6-1,0-1Z"/><path class="cls-2" d="m1412.4,421.6c-1.9,0-1.9,3,0,3s1.9-3,0-3Z"/><path class="cls-2" d="m667,636.8c-1.9,0-1.9,3,0,3s1.9-3,0-3Z"/><path class="cls-2" d="m260.4,569c-1.9,0-1.9,3,0,3s1.9-3,0-3Z"/><path class="cls-2" d="m85.9,262.4c-1.9,0-1.9,3,0,3s1.9-3,0-3Z"/><path class="cls-2" d="m1466.6,154c-1.9,0-1.9,3,0,3s1.9-3,0-3Z"/><path class="cls-2" d="m741.5,299.7c-1.9,0-1.9,3,0,3s1.9-3,0-3Z"/><path class="cls-2" d="m175.7,67.6c-1.9,0-1.9,3,0,3s1.9-3,0-3Z"/><path class="cls-2" d="m220.8,910.7c-1.9,0-1.9,3,0,3s1.9-3,0-3Z"/><path class="cls-2" d="m1770.4,599c-1.9,0-1.9,3,0,3s1.9-3,0-3Z"/><path class="cls-2" d="m1153.7,617c-1.9,0-1.9,3,0,3s1.9-3,0-3Z"/><path class="cls-2" d="m1404.5,81.7c-1.9,0-1.9,3,0,3s1.9-3,0-3Z"/><path class="cls-2" d="m1752.3,68.1c-1.9,0-1.9,3,0,3s1.9-3,0-3Z"/><path class="cls-3" d="m1558.1,390.7c-2.6,0-2.6,4,0,4s2.6-4,0-4Z"/><path class="cls-3" d="m103.4,487.8c-2.6,0-2.6,4,0,4s2.6-4,0-4Z"/><path class="cls-3" d="m467.1,162.5c-2.6,0-2.6,4,0,4s2.6-4,0-4Z"/><path class="cls-3" d="m1167.3,392.2c-.6,0-.6,1,0,1s.6-1,0-1Z"/><path class="cls-3" d="m577.7,432.8c-.6,0-.6,1,0,1s.6-1,0-1Z"/></g></svg>